<svg width="15" height="15" viewBox="0 0 15 15" fill="none" xmlns="http://www.w3.org/2000/svg">
<path d="M7.5 12.0833C8.4375 12.0833 9.2345 11.7186 9.891 10.9892C10.5475 10.2597 10.8755 9.37444 10.875 8.33333C10.875 7.29167 10.5468 6.40611 9.89025 5.67667C9.23375 4.94722 8.437 4.58278 7.5 4.58333C6.5625 4.58333 5.7655 4.94805 5.109 5.6775C4.4525 6.40694 4.1245 7.29222 4.125 8.33333C4.125 9.375 4.45325 10.2606 5.10975 10.99C5.76625 11.7194 6.563 12.0839 7.5 12.0833ZM7.5 10.4167C6.975 10.4167 6.53125 10.2153 6.16875 9.8125C5.80625 9.40972 5.625 8.91667 5.625 8.33333C5.625 7.75 5.80625 7.25694 6.16875 6.85417C6.53125 6.45139 6.975 6.25 7.5 6.25C8.025 6.25 8.46875 6.45139 8.83125 6.85417C9.19375 7.25694 9.375 7.75 9.375 8.33333C9.375 8.91667 9.19375 9.40972 8.83125 9.8125C8.46875 10.2153 8.025 10.4167 7.5 10.4167ZM1.5 15C1.0875 15 0.734251 14.8367 0.440251 14.51C0.146251 14.1833 -0.000498727 13.7911 1.27334e-06 13.3333V3.33333C1.27334e-06 2.875 0.147001 2.4825 0.441001 2.15583C0.735001 1.82917 1.088 1.66611 1.5 1.66667H3.8625L5.25 0H9.75L11.1375 1.66667H13.5C13.9125 1.66667 14.2657 1.83 14.5597 2.15667C14.8537 2.48333 15.0005 2.87556 15 3.33333V13.3333C15 13.7917 14.853 14.1842 14.559 14.5108C14.265 14.8375 13.912 15.0006 13.5 15H1.5ZM13.5 13.3333V3.33333H10.4625L9.09375 1.66667H5.90625L4.5375 3.33333H1.5V13.3333H13.5Z" fill="#355B5E"/>
</svg>
