<svg width="17" height="17" viewBox="0 0 17 17" fill="none" xmlns="http://www.w3.org/2000/svg">
<g id="ic:outline-remove-red-eye">
<path id="Vector" d="M9.07501 4.52083C10.3287 4.51676 11.5581 4.85869 12.6219 5.50732C13.6857 6.15595 14.5407 7.08494 15.0886 8.1875C13.9636 10.4342 11.6659 11.8542 9.07501 11.8542C6.4841 11.8542 4.18638 10.4342 3.06138 8.1875C3.6093 7.08494 4.46431 6.15595 5.52811 5.50732C6.59192 4.85869 7.82133 4.51676 9.07501 4.52083ZM9.07501 3.1875C5.66592 3.1875 2.75456 5.26083 1.57501 8.1875C2.75456 11.1142 5.66592 13.1875 9.07501 13.1875C12.4841 13.1875 15.3955 11.1142 16.575 8.1875C15.3955 5.26083 12.4841 3.1875 9.07501 3.1875ZM9.07501 6.52083C9.52709 6.52083 9.96064 6.69643 10.2803 7.00899C10.6 7.32155 10.7796 7.74547 10.7796 8.1875C10.7796 8.62953 10.6 9.05345 10.2803 9.36601C9.96064 9.67857 9.52709 9.85417 9.07501 9.85417C8.62294 9.85417 8.18938 9.67857 7.86972 9.36601C7.55005 9.05345 7.37047 8.62953 7.37047 8.1875C7.37047 7.74547 7.55005 7.32155 7.86972 7.00899C8.18938 6.69643 8.62294 6.52083 9.07501 6.52083ZM9.07501 5.1875C7.3841 5.1875 6.00683 6.53417 6.00683 8.1875C6.00683 9.84083 7.3841 11.1875 9.07501 11.1875C10.7659 11.1875 12.1432 9.84083 12.1432 8.1875C12.1432 6.53417 10.7659 5.1875 9.07501 5.1875Z" fill="#787676"/>
</g>
</svg>
