<svg width="13" height="17" viewBox="0 0 13 17" fill="none" xmlns="http://www.w3.org/2000/svg">
<path d="M6.5 10.7368C8.27857 10.7368 9.70357 9.53789 9.70357 8.05263L9.71428 2.68421C9.71428 1.19895 8.27857 0 6.5 0C4.72143 0 3.28571 1.19895 3.28571 2.68421V8.05263C3.28571 9.53789 4.72143 10.7368 6.5 10.7368ZM5.21429 2.59474C5.21429 2.00421 5.79286 1.52105 6.5 1.52105C7.20714 1.52105 7.78571 2.00421 7.78571 2.59474L7.775 8.14211C7.775 8.73263 7.20714 9.21579 6.5 9.21579C5.79286 9.21579 5.21429 8.73263 5.21429 8.14211V2.59474ZM11 8.05263C11 10.7368 9.45714 12.6158 6.5 12.6158C3.54286 12.6158 2 10.7368 2 8.05263H0C0 11.1037 1.91429 13.6268 5.42857 14.0653V17H7.57143V14.0653C11.0857 13.6358 13 11.1126 13 8.05263H11Z" fill="#355B5E"/>
</svg>
