<svg width="15" height="17" viewBox="0 0 15 17" fill="none" xmlns="http://www.w3.org/2000/svg">
<path d="M13.125 14.875L9.375 10.625M1.875 7.08333C1.875 7.73447 1.98816 8.37923 2.20803 8.98081C2.42789 9.58238 2.75015 10.129 3.15641 10.5894C3.56266 11.0498 4.04496 11.4151 4.57576 11.6642C5.10656 11.9134 5.67547 12.0417 6.25 12.0417C6.82453 12.0417 7.39344 11.9134 7.92424 11.6642C8.45504 11.4151 8.93734 11.0498 9.34359 10.5894C9.74985 10.129 10.0721 9.58238 10.292 8.98081C10.5118 8.37923 10.625 7.73447 10.625 7.08333C10.625 6.4322 10.5118 5.78743 10.292 5.18586C10.0721 4.58429 9.74985 4.03769 9.34359 3.57726C8.93734 3.11684 8.45504 2.75161 7.92424 2.50243C7.39344 2.25325 6.82453 2.125 6.25 2.125C5.67547 2.125 5.10656 2.25325 4.57576 2.50243C4.04496 2.75161 3.56266 3.11684 3.15641 3.57726C2.75015 4.03769 2.42789 4.58429 2.20803 5.18586C1.98816 5.78743 1.875 6.4322 1.875 7.08333Z" stroke="#787676" stroke-width="2" stroke-linecap="round" stroke-linejoin="round"/>
</svg>
